<svg xmlns="http://www.w3.org/2000/svg" width="19.955" height="23.146" viewBox="0 0 19.955 23.146"><defs><style>.a{fill:#fab991;}.b{fill:#f0915a;}.c{fill:#5f78be;}.d{fill:#46508c;}.e{fill:#faa51e;}.f{fill:#f06423;}.g{fill:#faa019;}.h{fill:#ffcd06;}</style></defs><g transform="translate(-32.188 -555.938)"><path class="a" d="M41.924,569.688h-3.4a2.393,2.393,0,0,0-1.693.7l-.895.9,2,1.995.964-.963a.8.8,0,0,1,.564-.235h2.463a1.2,1.2,0,1,0,0-2.393Z" transform="translate(1.039 3.81)"/><path class="b" d="M47.244,569.3a.8.8,0,0,0-1.129,0l-2.959,2.959H39.028a.794.794,0,0,0-.564.234l-.964.963,1.2,1.2.8-.8h3.826a1.19,1.19,0,0,0,.847-.351l3.076-3.077A.8.8,0,0,0,47.244,569.3Z" transform="translate(1.472 3.637)"/><path class="b" d="M40.769,571.435H40.5a.4.4,0,0,1-.4-.4V570.5a.4.4,0,0,1,.4-.4h.266a.665.665,0,0,1,0,1.331Z" transform="translate(2.194 3.925)"/><path class="c" d="M36.86,570.871l2.112,2.112-2,1.995H32.188l4.108-4.107A.4.4,0,0,1,36.86,570.871Z" transform="translate(0 4.106)"/><path class="d" d="M37.933,572.5l1.314,1.314a.4.4,0,0,1,0,.565l-.117.116H35.938Z" transform="translate(1.039 4.589)"/><path class="d" d="M50.373,567.91H34.409a1.6,1.6,0,0,1-1.6-1.6v-8.779a1.6,1.6,0,0,1,1.6-1.6H50.373a1.6,1.6,0,0,1,1.6,1.6v8.779A1.6,1.6,0,0,1,50.373,567.91Z" transform="translate(0.173)"/><path class="c" d="M48.776,567.91H34.409a1.6,1.6,0,0,1-1.6-1.6v-8.779a1.6,1.6,0,0,1,1.6-1.6H48.776a1.6,1.6,0,0,1,1.6,1.6v8.779A1.6,1.6,0,0,1,48.776,567.91Z" transform="translate(0.173)"/><path class="e" d="M32.813,557.812h17.56v2.4H32.813Z" transform="translate(0.173 0.519)"/><path class="f" d="M48.159,560.208h-1.6v-2.4h1.6Z" transform="translate(3.983 0.519)"/><path class="f" d="M40.6,569.788a4.191,4.191,0,1,0-4.191-4.19A4.19,4.19,0,0,0,40.6,569.788Z" transform="translate(1.169 1.515)"/><path class="g" d="M40.727,562.135a3.592,3.592,0,1,1-3.592,3.592A3.6,3.6,0,0,1,40.727,562.135Zm0-1.2a4.789,4.789,0,1,0,4.789,4.789A4.788,4.788,0,0,0,40.727,560.938Z" transform="translate(1.039 1.386)"/><path class="h" d="M39.817,560.873a.6.6,0,0,1-.6-.6v-.665a.6.6,0,1,1,1.2,0v.665A.6.6,0,0,1,39.817,560.873Z" transform="translate(1.948 0.851)"/><path class="h" d="M39.817,570.769a.6.6,0,0,1-.6-.6V569.5a.6.6,0,1,1,1.2,0v.665A.6.6,0,0,1,39.817,570.769Z" transform="translate(1.948 3.593)"/><path class="h" d="M35.882,563.145a.591.591,0,0,1-.3-.08l-.576-.332a.6.6,0,1,1,.6-1.037l.576.332a.6.6,0,0,1-.3,1.117Z" transform="translate(0.698 1.573)"/><path class="h" d="M44.452,568.093a.6.6,0,0,1-.3-.08l-.576-.333a.6.6,0,0,1,.6-1.037l.576.333a.6.6,0,0,1-.3,1.117Z" transform="translate(3.073 2.944)"/><path class="h" d="M35.308,568.093a.6.6,0,0,1-.3-1.117l.576-.333a.6.6,0,0,1,.6,1.037l-.576.333A.605.605,0,0,1,35.308,568.093Z" transform="translate(0.699 2.944)"/><path class="h" d="M43.877,563.144a.6.6,0,0,1-.3-1.116l.576-.333a.6.6,0,0,1,.6,1.037l-.576.332A.59.59,0,0,1,43.877,563.144Z" transform="translate(3.073 1.573)"/><path class="h" d="M40.421,562.7l.682,1.383,1.525.221a.2.2,0,0,1,.111.341l-1.1,1.075.261,1.519a.2.2,0,0,1-.29.211l-1.364-.716-1.364.716a.2.2,0,0,1-.29-.211l.261-1.519-1.1-1.075a.2.2,0,0,1,.111-.341l1.525-.221.682-1.383A.2.2,0,0,1,40.421,562.7Z" transform="translate(1.523 1.843)"/></g></svg>